<svg version="1.2" xmlns="http://www.w3.org/2000/svg" viewBox="0 0 510 180" width="510" height="180"><style>.a{fill:#ec1c24}</style><path fill-rule="evenodd" class="a" d="m182.9 56v3.8q0 0.9 0.3 1.6 0.3 0.8 0.9 1.3 0.5 0.6 1.3 0.9 0.7 0.3 1.5 0.4h32.4q0.8-0.1 1.6-0.4 0.7-0.3 1.3-0.9 0.5-0.5 0.8-1.3 0.3-0.7 0.3-1.5v-2.2q0-0.8-0.2-1.5-0.3-0.8-0.9-1.3-0.6-0.6-1.3-0.9-0.8-0.3-1.6-0.4h-32.3c-1.9 0-3.8-0.4-5.5-1.1-1.8-0.8-3.4-1.8-4.7-3.2-1.3-1.4-2.4-3-3.1-4.7-0.7-1.8-1-3.7-1-5.6v-2.1c0-1.9 0.3-3.7 1-5.5 0.7-1.8 1.8-3.4 3.1-4.7 1.3-1.4 2.9-2.5 4.7-3.2 1.7-0.8 3.6-1.2 5.5-1.2h32.4c1.9 0 3.8 0.4 5.6 1.2 1.7 0.7 3.3 1.8 4.6 3.2 1.3 1.3 2.4 2.9 3.1 4.7 0.7 1.8 1.1 3.6 1 5.5 0 1.9 0 2.9 0 3.7h-10.3v-3.7q0-0.8-0.3-1.5-0.3-0.8-0.9-1.3-0.5-0.6-1.3-0.9-0.7-0.4-1.5-0.4h-32.4q-0.8 0-1.5 0.4-0.8 0.3-1.3 0.9-0.6 0.5-0.9 1.3-0.3 0.7-0.3 1.5v2.1q0 0.9 0.3 1.6 0.3 0.8 0.9 1.3 0.5 0.6 1.3 0.9 0.7 0.3 1.5 0.4c29.2 0 32.2 0 32.4-0.2 1.9 0.1 3.8 0.5 5.5 1.3 1.8 0.7 3.4 1.8 4.7 3.2 1.3 1.4 2.4 3 3.1 4.7 0.7 1.8 1 3.7 1 5.6v2.1c0.1 1.9-0.3 3.8-1 5.6-0.7 1.7-1.8 3.3-3.1 4.7-1.3 1.3-2.9 2.4-4.6 3.2-1.8 0.7-3.7 1.1-5.6 1.1h-32.4c-1.9 0-3.8-0.4-5.5-1.1-1.8-0.8-3.4-1.9-4.7-3.2-1.3-1.4-2.4-3-3.1-4.7-0.7-1.8-1-3.7-1-5.6v-2.1c0-0.4 0-1.4 0-1.8z"/><path fill-rule="evenodd" class="a" d="m411.9 39.5v-7.6h9.9v7.6h24.7v8.3h-24.7v12.5c0 3.9 1.8 4.7 3.8 4.7h9c3 0 4-1.2 4-4.4v-5.8h9.1c0 0 0.1 2.8 0.1 5.1q0 0.8-0.1 1.7 0 0.8 0 1.6-0.1 0.8-0.2 1.6 0 0.8-0.1 1.6c-1.4 6.1-5.1 7.7-11.9 7.8l-12.2-0.1c-5.8-0.2-8.7-3.3-10.1-6.3q-0.2-0.5-0.4-1-0.2-0.5-0.3-1-0.2-0.6-0.3-1.1-0.1-0.5-0.1-1-0.1-0.3-0.1-0.5 0-0.3 0-0.5 0-0.2 0-0.5 0-0.2 0.1-0.4l-0.1-13.9h-7.7v-8.4z"/><path fill-rule="evenodd" class="a" d="m387.7 46.8h-13.7c-2.3 0-4.1 0.6-4.2 3v23.3h-9.8v-34.9h9.9v1.1q0.6-0.3 1.2-0.5 0.7-0.2 1.4-0.3 0.6-0.2 1.3-0.2 0.7-0.1 1.4-0.1h11.7c7.9 0 14.2 4.1 14.4 14.4v4.9h-9.1v-6.3q0-0.9-0.4-1.7-0.3-0.8-0.9-1.4-0.7-0.6-1.5-1-0.8-0.3-1.7-0.3z"/><path fill-rule="evenodd" class="a" d="m306.2 60.5v-7.5c0-1.8 0.4-3.6 1.1-5.2 0.7-1.7 1.7-3.2 2.9-4.5 1.3-1.2 2.8-2.2 4.5-2.9 1.6-0.7 3.4-1 5.2-1h21.2c1.8 0 3.6 0.3 5.3 1 1.6 0.7 3.1 1.7 4.4 2.9q2 1.9 3 4.5c0.6 1.6 1 3.4 1 5.2v7.5c0 1.8-0.4 3.5-1 5.2-0.7 1.6-1.7 3.2-3 4.4-1.3 1.3-2.8 2.3-4.4 3-1.7 0.7-3.5 1-5.3 1h-21.2c-1.8 0-3.6-0.3-5.2-1q-2.6-1-4.5-3c-1.2-1.3-2.2-2.8-2.9-4.4-0.7-1.7-1.1-3.4-1.1-5.2zm13.7 3.8h21.2q0.8 0 1.5-0.3 0.7-0.3 1.2-0.8 0.6-0.6 0.9-1.3 0.3-0.7 0.3-1.4v-7.5q0-0.8-0.3-1.5-0.3-0.7-0.9-1.2-0.5-0.5-1.2-0.8-0.7-0.3-1.5-0.3h-21.2q-0.8 0-1.5 0.3-0.7 0.3-1.2 0.8-0.6 0.5-0.8 1.2-0.3 0.7-0.3 1.5v7.5q0 0.7 0.3 1.4 0.3 0.7 0.8 1.3 0.5 0.5 1.2 0.8 0.7 0.3 1.5 0.3z"/><path fill-rule="evenodd" class="a" d="m301.3 78c0 1.9-0.4 3.8-1.1 5.5-0.8 1.8-1.8 3.4-3.2 4.7-1.3 1.3-2.9 2.4-4.6 3.1-1.8 0.7-3.7 1.1-5.6 1.1h-19.2c-1.9 0-3.8-0.4-5.6-1.1-1.7-0.7-3.3-1.8-4.6-3.1-1.4-1.3-2.4-2.9-3.2-4.7-0.7-1.7-1.1-3.6-1.1-5.5v-1.9l9.9 0.2v1.7q0 0.9 0.3 1.8 0.4 0.8 1 1.4 0.7 0.7 1.5 1 0.9 0.4 1.8 0.4h19.3q0.9 0 1.7-0.4 0.8-0.3 1.5-1 0.6-0.6 1-1.4 0.3-0.9 0.3-1.8v-4.5q-0.5 0.2-1 0.3-0.6 0.2-1.1 0.2-0.6 0.1-1.1 0.2-0.5 0-1.1 0h-20.1c-1.8 0-3.6-0.3-5.3-1-1.7-0.7-3.2-1.8-4.5-3.1-1.3-1.2-2.3-2.8-3-4.5-0.7-1.7-1.1-3.5-1.1-5.3v-7c0-1.9 0.4-3.7 1.1-5.4q1-2.5 3-4.5 1.9-1.9 4.5-3c1.7-0.7 3.5-1.1 5.4-1.1h16.9q1 0 1.9 0.1 1 0.1 1.9 0.4 1 0.2 1.9 0.5 0.9 0.3 1.7 0.7v-1.7h9.9zm-34.2-28.9q-0.8 0-1.6 0.3-0.8 0.4-1.3 0.9-0.6 0.6-0.9 1.4-0.3 0.7-0.4 1.5v7.1q0.1 0.8 0.4 1.6 0.3 0.7 0.9 1.3 0.5 0.6 1.3 0.9 0.8 0.3 1.6 0.3h20q0.8 0 1.6-0.3 0.8-0.3 1.3-0.9 0.6-0.6 0.9-1.3 0.3-0.8 0.3-1.6v-7.1q0-0.8-0.3-1.5-0.3-0.8-0.9-1.4-0.5-0.5-1.3-0.9-0.8-0.3-1.6-0.3z"/><path fill-rule="evenodd" class="a" d="m238.5 36.5h9.8v-10h-9.8zm0 37.7h9.8v-34.3h-9.8z"/><path fill-rule="evenodd" class="a" d="m485.4 52.2q0.5 0 1 0.1 0.5 0 1 0.1 0.4 0.1 0.9 0.2 0.5 0.2 1 0.3v-1.7c0.1-3.2-1-3.5-3.5-3.5h-18.1c-2 0-2.9 0.6-2.9 2.9v0.7l-8.6 0.2v-0.3c0-7.2 2-11.4 10.5-11.8h18.2c7.5 0 13.8 4.4 13.8 11.8v23h-9.4v-0.8q-0.6 0.2-1.2 0.4-0.6 0.1-1.2 0.2-0.6 0.2-1.3 0.2-0.6 0-1.2 0h-20c-1.3 0-2.7-0.2-3.9-0.7q-1.9-0.7-3.3-2.1c-1-1-1.8-2.1-2.3-3.3q-0.7-1.8-0.9-3.9v-1.9c0.1-1.3 0.4-2.7 0.9-3.9 0.5-1.2 1.3-2.3 2.3-3.2 0.9-1 2-1.7 3.3-2.2 1.2-0.5 2.6-0.7 3.9-0.7zm-22.8 10.2v1.6q0.1 0.4 0.2 0.7 0.1 0.3 0.4 0.5 0.2 0.3 0.6 0.4 0.3 0.1 0.6 0.1h21.9q0.4 0 0.7-0.1 0.3-0.1 0.6-0.4 0.2-0.2 0.4-0.5 0.1-0.3 0.1-0.7v-1.6q0-0.4-0.1-0.7-0.2-0.3-0.4-0.6-0.3-0.2-0.6-0.3-0.3-0.1-0.7-0.1h-21.9q-0.3 0-0.6 0.1-0.4 0.1-0.6 0.3-0.3 0.3-0.4 0.6-0.1 0.3-0.2 0.7z"/><path class="a" d="m99.5 22.8h17v18.9h8l21.5-18.9h23.2l-30.1 25.2 33.6 26.4h-24.1l-24.6-19.8h-7.5v19.8h-17z"/><path fill-rule="evenodd" class="a" d="m40.7 22.8h22.2l30.5 51.6h-18.9l-5.3-9.2h-34.5l-5 9.2h-19zm0.3 31.3h21.8l-11.1-19.4z"/><path fill-rule="evenodd" class="a" d="m146.2 130.3q0.7 0.3 1.2 0.7 0.6 0.4 1.2 0.9 0.5 0.4 1 0.9 0.4 0.6 0.8 1.1 0.4 0.7 0.7 1.3 0.3 0.7 0.5 1.3 0.2 0.7 0.3 1.4 0.1 0.8 0.1 1.5 0 1-0.2 2.1-0.2 1.1-0.6 2.1-0.4 1-1.1 1.8-0.6 0.9-1.4 1.7-0.7 0.7-1.7 1.3-0.9 0.6-1.9 1-1 0.4-2.1 0.6-1 0.2-2.1 0.2h-16.5v-38.3h15.3q1 0 2.1 0.2 1 0.2 2 0.6 0.9 0.4 1.8 0.9 0.9 0.6 1.7 1.3 0.7 0.7 1.3 1.6 0.6 0.9 1 1.8 0.4 1 0.6 2 0.2 1 0.2 2.1 0 1.2-0.2 2.3-0.3 1.2-0.9 2.2-0.5 1-1.3 1.9-0.8 0.9-1.8 1.5zm-6.5-13.6h-10.3l0.1 11.7h10.2q0.5 0 1.1-0.1 0.5-0.1 1-0.3 0.6-0.3 1-0.6 0.5-0.3 0.9-0.7 0.4-0.4 0.7-0.9 0.3-0.5 0.5-1 0.2-0.6 0.3-1.1 0.1-0.6 0.1-1.2 0-0.5-0.1-1.1-0.1-0.6-0.3-1.1-0.2-0.5-0.5-1-0.4-0.5-0.8-0.9-0.3-0.4-0.8-0.7-0.5-0.4-1-0.6-0.5-0.2-1-0.3-0.6-0.1-1.1-0.1zm1.2 28.7q0.6 0 1.2-0.1 0.6-0.1 1.1-0.3 0.6-0.2 1.1-0.6 0.5-0.3 0.9-0.8 0.4-0.4 0.8-0.9 0.3-0.5 0.5-1.1 0.2-0.6 0.3-1.2 0.2-0.6 0.1-1.2 0.1-0.6-0.1-1.2-0.1-0.6-0.3-1.2-0.2-0.5-0.6-1-0.3-0.5-0.7-1-0.5-0.4-0.9-0.7-0.5-0.4-1.1-0.6-0.6-0.3-1.1-0.4-0.6-0.1-1.2-0.1h-11.4v12.4z"/><path fill-rule="evenodd" class="a" d="m180.3 122.9h4.7v27.3h-4.8v-4.7q-0.8 1.3-1.9 2.3-1.1 1.1-2.5 1.8-1.3 0.7-2.8 1-1.5 0.4-3 0.3-1.4 0-2.7-0.2-1.4-0.3-2.6-0.9-1.3-0.5-2.4-1.3-1.2-0.8-2.1-1.8c-1.3-1.3-2.3-2.9-3-4.7-0.7-1.7-1-3.6-1-5.5 0-1.9 0.3-3.7 1-5.5 0.7-1.7 1.7-3.3 3-4.7q0.9-1 2.1-1.8 1.1-0.8 2.4-1.3 1.2-0.5 2.6-0.8 1.3-0.3 2.7-0.3 1.5 0 3 0.3 1.5 0.3 2.9 1.1 1.4 0.7 2.5 1.7 1.1 1.1 1.9 2.4zm-9.7 23.4q1 0 1.9-0.1 1-0.2 1.9-0.6 0.9-0.3 1.7-0.9 0.8-0.5 1.4-1.2c0.9-0.9 1.6-2 2.1-3.2 0.5-1.2 0.7-2.5 0.7-3.8 0-1.3-0.2-2.5-0.7-3.7q-0.8-1.8-2.1-3.3c-0.9-0.8-2-1.5-3.1-2-1.2-0.5-2.5-0.8-3.8-0.8-1.3 0-2.5 0.3-3.7 0.8-1.2 0.5-2.3 1.2-3.2 2q-1.3 1.5-2.1 3.3c-0.4 1.2-0.7 2.4-0.7 3.7 0 1.3 0.3 2.6 0.7 3.8 0.5 1.2 1.2 2.3 2.1 3.2q0.7 0.7 1.5 1.2 0.8 0.6 1.7 0.9 0.9 0.4 1.8 0.6 0.9 0.1 1.9 0.1z"/><path class="a" d="m221.8 122.2q1-0.1 2 0.1 1 0.2 2 0.6 1 0.3 1.8 0.9 0.9 0.6 1.6 1.4 0.7 0.8 1.3 1.7 0.6 1 0.9 2 0.4 1 0.5 2.1 0.2 1.1 0.1 2.2v17h-4.7v-16.8q0-0.7-0.1-1.4 0-0.6-0.3-1.3-0.2-0.6-0.5-1.2-0.3-0.6-0.7-1.1-0.5-0.4-1-0.7-0.5-0.4-1.1-0.6-0.5-0.2-1.1-0.3-0.6-0.1-1.2-0.1-0.7 0-1.4 0.1-0.7 0.1-1.3 0.3-0.6 0.3-1.2 0.7-0.6 0.4-1 0.9-1.9 2.1-1.8 6.3v15.1h-4.8v-16.7q0-0.7 0-1.4-0.1-0.6-0.3-1.3-0.2-0.6-0.5-1.2-0.3-0.6-0.8-1.1-0.4-0.4-0.8-0.7-0.5-0.4-1.1-0.6-0.5-0.2-1.1-0.3-0.6-0.1-1.2-0.1-0.7 0-1.4 0.1-0.7 0.1-1.3 0.4-0.7 0.3-1.2 0.7-0.6 0.4-1.1 0.9-2 2-2 6.2v15.2h-4.8v-27.3h4.8v3.6q0.6-1 1.5-1.9 0.9-0.8 2-1.4 1.1-0.6 2.2-0.8 1.2-0.3 2.4-0.2 1.3-0.1 2.5 0.2 1.2 0.3 2.2 0.9 1.1 0.6 1.9 1.5 0.9 0.9 1.4 2 0.7-1.1 1.6-2 1-0.9 2.1-1.5 1.2-0.7 2.4-0.9 1.3-0.3 2.6-0.2z"/><path fill-rule="evenodd" class="a" d="m253.7 122.2q1.4-0.1 2.8 0.2 1.3 0.3 2.6 0.8 1.2 0.5 2.4 1.3 1.1 0.8 2 1.8c1.3 1.4 2.3 3 3 4.7 0.7 1.8 1.1 3.6 1.1 5.5 0 1.9-0.4 3.8-1.1 5.5-0.7 1.8-1.7 3.4-3 4.7q-0.9 1-2 1.8-1.2 0.8-2.4 1.3-1.3 0.6-2.6 0.9-1.4 0.2-2.8 0.2-1.5 0.1-3-0.3-1.5-0.3-2.9-1-1.3-0.7-2.4-1.8-1.2-1-2-2.3v4.7h-4.7v-38.3h4.7v15.7q0.8-1.3 2-2.4 1.1-1 2.4-1.7 1.4-0.8 2.9-1.1 1.5-0.3 3-0.2zm-0.6 24.1q1 0 1.9-0.1 1-0.2 1.9-0.6 0.9-0.3 1.7-0.9 0.8-0.5 1.4-1.2c0.9-0.9 1.6-2 2.1-3.2 0.5-1.2 0.7-2.5 0.7-3.8 0-1.3-0.2-2.5-0.7-3.7-0.5-1.2-1.2-2.3-2.1-3.2-0.9-0.9-2-1.6-3.2-2.1-1.1-0.5-2.4-0.8-3.7-0.8-1.3 0-2.5 0.3-3.7 0.8-1.2 0.5-2.3 1.2-3.2 2.1-0.9 0.9-1.6 2-2.1 3.2-0.4 1.2-0.7 2.4-0.7 3.7 0 1.3 0.3 2.6 0.7 3.8 0.5 1.2 1.2 2.3 2.1 3.2q0.7 0.7 1.5 1.2 0.8 0.6 1.7 0.9 0.9 0.4 1.8 0.6 1 0.1 1.9 0.1z"/><path fill-rule="evenodd" class="a" d="m295.9 122.9h4.7v27.3h-4.7v-4.7q-0.8 1.3-2 2.3-1.1 1.1-2.5 1.8-1.3 0.7-2.8 1-1.5 0.4-3 0.3-1.4 0-2.8-0.2-1.3-0.3-2.6-0.9-1.2-0.5-2.4-1.3-1.1-0.8-2-1.8c-1.3-1.3-2.3-2.9-3-4.7-0.7-1.7-1.1-3.6-1.1-5.5 0-1.9 0.4-3.7 1.1-5.5 0.7-1.7 1.7-3.3 3-4.7q0.9-1 2-1.8 1.2-0.8 2.4-1.3 1.3-0.5 2.6-0.8 1.4-0.3 2.8-0.3 1.5 0 3 0.3 1.5 0.3 2.8 1.1 1.4 0.7 2.5 1.7 1.2 1.1 2 2.4zm-7.8 23.3q0.9-0.2 1.8-0.6 0.9-0.3 1.8-0.9 0.8-0.5 1.5-1.2c1.3-1.4 2.3-3.1 2.7-5 0.4-2 0.2-4-0.6-5.8-0.7-1.8-2-3.3-3.6-4.4-1.7-1-3.6-1.6-5.5-1.6q-1 0-2 0.2-0.9 0.2-1.8 0.5-0.9 0.4-1.7 0.9-0.8 0.6-1.4 1.2-1.4 1.5-2.1 3.3c-0.5 1.2-0.7 2.4-0.7 3.7 0 1.3 0.2 2.6 0.7 3.8 0.5 1.2 1.2 2.3 2.1 3.2q0.6 0.7 1.4 1.2 0.8 0.6 1.7 0.9 0.9 0.4 1.8 0.6 1 0.1 1.9 0.1 1 0 2-0.1zm-2 0.1q0 0 0 0h0.1q0 0-0.1 0z"/><path class="a" d="m327.2 142.7q0 0.8-0.1 1.5-0.2 0.8-0.4 1.5-0.3 0.7-0.8 1.3-0.4 0.6-0.9 1.1-0.7 0.6-1.3 1.1-0.7 0.4-1.5 0.8-0.8 0.3-1.6 0.5-0.8 0.2-1.6 0.3v1.9q0.5 0 0.9 0.2 0.5 0.1 0.9 0.3 0.4 0.2 0.8 0.5 0.4 0.2 0.8 0.5 0.3 0.3 0.5 0.6 0.3 0.3 0.4 0.7 0.2 0.3 0.3 0.7 0.1 0.4 0 0.8 0 5.7-11.4 5v-3.6q7.3 0.6 7.3-1.7 0-1.7-4.5-2v-3.9q-6.7-1-8.9-6.3l4.1-2.4q0.2 0.5 0.4 1 0.2 0.4 0.6 0.8 0.3 0.4 0.6 0.7 0.4 0.4 0.9 0.7 0.4 0.2 1 0.5 0.5 0.2 1 0.3 0.6 0.2 1.1 0.2 0.6 0.1 1.2 0.1 0.5 0 1 0 0.5-0.1 1-0.2 0.5-0.1 0.9-0.3 0.5-0.2 1-0.4 0.3-0.2 0.6-0.5 0.3-0.3 0.5-0.7 0.2-0.4 0.3-0.8 0.1-0.4 0.1-0.8 0-0.4-0.1-0.8-0.1-0.4-0.3-0.7-0.3-0.3-0.5-0.6-0.3-0.3-0.7-0.4-0.4-0.3-0.9-0.5-0.5-0.3-0.9-0.5-0.5-0.2-1-0.4-0.5-0.1-1-0.3l-4.5-1.3q-0.5-0.2-1.1-0.4-0.5-0.3-1-0.6-0.5-0.3-0.9-0.6-0.4-0.4-0.8-0.8-0.4-0.5-0.7-1-0.3-0.6-0.5-1.1-0.3-0.6-0.3-1.2-0.1-0.6-0.1-1.2 0-0.9 0.1-1.7 0.2-0.8 0.6-1.6 0.3-0.7 0.9-1.4 0.5-0.7 1.1-1.2 0.8-0.6 1.6-1 0.8-0.5 1.7-0.7 0.9-0.3 1.8-0.5 0.9-0.1 1.9-0.1 0.7 0 1.5 0.1 0.8 0.1 1.5 0.3 0.8 0.2 1.5 0.5 0.7 0.2 1.4 0.6 0.6 0.4 1.2 0.8 0.6 0.5 1.1 1 0.5 0.6 0.9 1.2 0.4 0.6 0.7 1.2l-4 2.3q-1.5-3.5-5.9-3.5-0.4-0.1-0.9 0-0.4 0.1-0.8 0.2-0.5 0.1-0.9 0.3-0.4 0.2-0.8 0.4-0.3 0.2-0.6 0.5-0.3 0.3-0.5 0.6-0.1 0.4-0.2 0.8-0.1 0.3-0.1 0.7 0 0.4 0.1 0.8 0.1 0.4 0.3 0.7 0.3 0.3 0.5 0.6 0.3 0.3 0.7 0.4 0.5 0.3 0.9 0.5 0.5 0.2 1 0.4 0.5 0.2 0.9 0.4 0.5 0.2 1 0.3l4.5 1.3q0.6 0.2 1.1 0.4 0.5 0.3 1 0.6 0.5 0.3 0.9 0.7 0.5 0.4 0.8 0.8 0.4 0.5 0.7 1.1 0.3 0.5 0.5 1.1 0.2 0.6 0.3 1.2 0.1 0.7 0.1 1.3z"/><path class="a" d="m355.7 150.2h-5.9l-12.5-12.9v12.9h-4.7v-38.3h4.7v23l11.8-12h6.2l-13.1 13.3z"/><path fill-rule="evenodd" class="a" d="m380.2 122.9h4.8v27.3h-4.8v-4.7q-0.8 1.3-1.9 2.3-1.1 1.1-2.5 1.8-1.3 0.7-2.8 1-1.5 0.4-3.1 0.3-1.4 0-2.7-0.2-1.4-0.3-2.6-0.9-1.3-0.5-2.4-1.3-1.1-0.8-2.1-1.8c-1.3-1.3-2.3-2.9-3-4.7-0.7-1.7-1-3.6-1-5.5 0-1.9 0.3-3.7 1-5.5 0.7-1.7 1.7-3.3 3-4.7q1-1 2.1-1.8 1.1-0.8 2.4-1.3 1.2-0.5 2.6-0.8 1.3-0.3 2.7-0.3 1.6 0 3.1 0.3 1.5 0.3 2.8 1.1 1.4 0.7 2.5 1.7 1.1 1.1 1.9 2.4zm-9.7 23.4q1 0 1.9-0.1 1-0.2 1.9-0.6 0.9-0.3 1.7-0.9 0.8-0.5 1.5-1.2c1.3-1.4 2.3-3.1 2.7-5 0.4-1.9 0.2-3.9-0.6-5.7-0.7-1.8-2-3.4-3.6-4.4-1.6-1.1-3.5-1.7-5.5-1.7q-0.9 0-1.9 0.2-0.9 0.2-1.8 0.5-0.9 0.4-1.7 0.9-0.8 0.6-1.5 1.2c-0.9 1-1.6 2.1-2 3.3-0.5 1.2-0.8 2.4-0.8 3.7 0 1.3 0.3 2.6 0.8 3.8 0.4 1.2 1.1 2.3 2 3.2q0.7 0.7 1.5 1.2 0.8 0.6 1.7 0.9 0.9 0.4 1.8 0.6 1 0.1 1.9 0.1z"/><path class="a" d="m393 150.7c-1.2 0-2.3-0.6-2.9-1.6-0.7-1-0.8-2.3-0.3-3.4 0.4-1.1 1.4-1.8 2.5-2.1 1.2-0.2 2.4 0.2 3.2 1q0.5 0.5 0.8 1.2 0.2 0.6 0.2 1.3 0 0.7-0.2 1.3-0.3 0.7-0.8 1.2-0.2 0.3-0.5 0.5-0.3 0.2-0.6 0.3-0.3 0.1-0.7 0.2-0.3 0.1-0.7 0.1z"/></svg>