<svg version="1.2" xmlns="http://www.w3.org/2000/svg" viewBox="0 0 448 512" width="448" height="512"><style>.a{fill:#ec1c24}</style><path fill-rule="evenodd" class="a" d="m384 32c35.3 0 64 28.7 64 64v320c0 35.3-28.7 64-64 64h-320c-35.3 0-64-28.7-64-64v-320c0-35.3 28.7-64 64-64zm-273.3 108.7c-8.7 2.4-14.7 10.3-14.7 19.3 0 123.7 100.3 224 224 224 9 0 16.9-6 19.3-14.8l12-44c2.6-9.7-2.3-19.8-11.6-23.7l-48-20c-8.2-3.4-17.6-1-23.2 5.8l-20.2 24.7c-35.2-16.6-63.7-45.1-80.3-80.3l24.6-20.2c6.8-5.6 9.2-15 5.8-23.2l-20-48c-3.8-9.3-14-14.2-23.7-11.6z"/></svg>