<svg xmlns="http://www.w3.org/2000/svg" width="3047.945" height="814.163" viewBox="0 0 3047.945 814.163">
  <g id="katman_2" data-name="katman 2" transform="translate(0.006 -0.011)">
    <g id="Layer_1" data-name="Layer 1" transform="translate(-0.006 0.011)">
      <path id="Path_14" data-name="Path 14" d="M569.87,346.388c.3-182.162,148.179-329.609,330.341-329.378s329.666,148.054,329.5,330.216-147.928,329.722-330.09,329.63C717.276,676.74,569.593,528.737,569.87,346.388h0" transform="translate(1177.088 56.825)" fill="#0c1c8c"/>
      <path id="Path_5" data-name="Path 5" d="M420.27,95.61h.335" transform="translate(1340.922 305.005)" fill="#001689"/>
      <path id="Path_6" data-name="Path 6" d="M454.556,281.76v19.528c0,73.754,39.1,81.632,100.154,85.739,21.414,1.383,43.54,1.383,64.786,1.383,41.7,0,82.68,0,124.166-3.436C817.417,379.819,851.7,364.4,851.7,284.819c0-83.811-43.54-98.771-117.629-98.771H670.119l-65.163-2.053c-21.623,0-54.9,2.431-54.9-29.334,0-19.57,18.019-23.341,34.991-24.347,24.682-1.048,48.862-2.6,73.754-2.6h46.809c21.582,0,36,6.16,37.212,30.884h95a129.115,129.115,0,0,0-10.309-62.272C804.887,57.607,760.467,57.607,721.2,56.894l-68.6-.838A739.046,739.046,0,0,0,510.123,65.82c-51.125,13.913-59,46.515-59,94.539,0,61.015,18.858,89.51,81.3,93.952,53.136,3.436,106.315,3.436,159.451,3.436h15.463c21.246,0,44.923,2.556,44.923,29.334s-21.456,26.9-42.869,27.909-43.582,1.718-65.163,1.718H598.586c-21.958,0-49.7,0-49.7-30a30.058,30.058,0,0,0,0-5.49Z" transform="translate(1425.473 177.858)" fill="#fff"/>
      <path id="Path_7" data-name="Path 7" d="M569.87,346.388c.3-182.162,148.179-329.609,330.341-329.378s329.666,148.054,329.5,330.216-147.928,329.722-330.09,329.63C717.276,676.74,569.593,528.737,569.87,346.388h0" transform="translate(1818.229 54.227)" fill="#0c1c8c"/>
      <path id="Path_8" data-name="Path 8" d="M894.089,257.315H761.039l66.5-130.746Zm34.279,68.6L957.7,385.923h104.261L892.706,56.21H765.313L592.62,386.636H697.929l30.842-60.009Z" transform="translate(1890.814 179.297)" fill="#fff"/>
      <path id="Path_9" data-name="Path 9" d="M395.325,59.16,571.119,370.938H462.876l-29.124-55.651H232.815l-29.585,55.651H98.13L271.242,59.16ZM267.722,249.5H398.845L334.394,127.969Z" transform="translate(313.114 188.709)" fill="#2a2321"/>
      <path id="Path_10" data-name="Path 10" d="M541.474,169.723c-2.64-25.646-5.28-33.147-45.468-34.907H362.2c-12.572.461-25.6,1.341-35.745,9.722-12.572,9.722-13.284,26.065-14.583,55.651v41.277a30.462,30.462,0,0,1,.419,6.16c0,4.442,0,28.286,14.164,41.906,11.482,10.6,28.705,11.482,46.809,12.823h117.88c18.983-.461,35.788-.88,46.1-15.463,5.741-9.261,6.2-18.983,6.2-29.334H412.279V196.626l228.3.461c0,20.953.419,41.529-.461,62.858a296.319,296.319,0,0,1-1.76,34.446c-3.1,31.806-13.661,58.668-45.048,71.994-26.023,11.021-58.291,11.021-86.074,11.021h-158.7c-34.907,0-69.773-.419-100.28-22.964A104.3,104.3,0,0,1,230.618,336.8c-21.623-31.806-18.1-79.034-18.564-113.941-.419-9.261-.419-18.522-.419-28.244a301.221,301.221,0,0,1,2.179-39.768c4.861-38.386,18.564-68.893,56.531-84.775,22.084-9.261,44.63-10.141,92.192-11.021,12.572,0,24.724-.461,37.086-.461h76.394a603.43,603.43,0,0,1,74.173,2.221c40.648,3.981,57.411,15,69.773,30,19.863,24.305,19.863,49.91,18.983,79.076Z" transform="translate(675.196 185.927)" fill="#2a2321"/>
      <path id="Path_11" data-name="Path 11" d="M672.033,59.16v68.893H418.546v51.963H658.33v65.331H418.546v54.938H672.033v70.653H323.63V59.16Z" transform="translate(1032.586 188.709)" fill="#2a2321"/>
      <path id="Path_12" data-name="Path 12" d="M257.005,5.875c22.713,13.41,20.534,44.5,7.585,63.864-33.022,49.407-73.88,93.24-109.206,140.929-18.145,24.515-68.558,97.347-93.2,151.2-17.139-56.7-30.172-133.6-12.572-212.126,44.839-42.283,92.192-89.8,138.289-129.907C205.713,4.157,234.209-7.535,257.005,5.875Z" transform="translate(131.61 -0.011)" fill="#f18220" fill-rule="evenodd"/>
      <path id="Path_13" data-name="Path 13" d="M166.468,246.734a630.373,630.373,0,0,0,35.62,82.847c26.065,51.041,68.39,108.494,84.9,131.081,35.326,48.317,76.184,92.863,109.206,142.856,12.949,19.612,15.128,50.748-7.585,63.739s-51.334,1.006-69.27-15.044c-29.921-26.778-60.051-53.765-89.8-81.255C178.243,523.563,128,474.575,81.567,423.115,42.888,380.2-1.155,322.457.019,262.407-1.2,202.4,42.846,145.448,81.525,103.165q27.448-30,56.782-58.835c-5.406,63.822,4.191,132.631,28.328,202.4Z" transform="translate(0.006 141.393)" fill="#001689" fill-rule="evenodd"/>
    </g>
  </g>
</svg>
