<svg version="1.2" xmlns="http://www.w3.org/2000/svg" viewBox="0 0 512 512" width="25" height="25">
	<title>circle-mail-svg-svg</title>
	<style>
		.s0 { fill: #0c1c8c } 
		.s1 { fill: #ffffff } 
	</style>
	<path id="Layer" class="s0" d="m256 512c141.4 0 256-114.6 256-256 0-141.4-114.6-256-256-256-141.4 0-256 114.6-256 256 0 141.4 114.6 256 256 256z"/>
	<path id="Layer" fill-rule="evenodd" class="s1" d="m375.3 117c10.9 0 19.8 8.9 19.8 19.9 0 11-8.9 19.9-19.8 19.9h-228.6c-5.5 0-10 4.4-10 9.9 0 5.5 4.5 9.9 10 9.9h228.6c21.9 0 39.7 17.9 39.7 39.8v139.1c0 21.9-17.8 39.8-39.7 39.8h-238.6c-21.9 0-39.7-17.9-39.7-39.8v-198.8c0-21.9 17.8-39.7 39.7-39.7zm-33.9 154.9c-3.7 3.7-5.8 8.8-5.8 14 0 5.3 2.1 10.4 5.8 14.1 3.7 3.7 8.8 5.8 14.1 5.8 5.2 0 10.3-2.1 14-5.8 3.8-3.7 5.8-8.8 5.8-14.1 0-5.2-2-10.3-5.8-14-3.7-3.7-8.8-5.8-14-5.8-5.3 0-10.4 2.1-14.1 5.8z"/>
</svg>