<svg version="1.2" xmlns="http://www.w3.org/2000/svg" viewBox="0 0 512 512" width="25" height="25">
	<title>circle-solid-svg</title>
	<style>
		.s0 { fill: #0c1c8c } 
		.s1 { fill: #ffffff } 
	</style>
	<path id="Layer" class="s0" d="m256 512c141.4 0 256-114.6 256-256 0-141.4-114.6-256-256-256-141.4 0-256 114.6-256 256 0 141.4 114.6 256 256 256z"/>
	<path id="Layer" fill-rule="evenodd" class="s1" d="m314.7 90c12.1 0 23.6 4.8 32.2 13.3l54.8 54.8c8.5 8.6 13.3 20.1 13.3 32.2v172.3c0 25-20.4 45.4-45.4 45.4h-227.2c-25 0-45.4-20.4-45.4-45.4v-227.2c0-25 20.4-45.4 45.4-45.4zm-172.2 104.3c0 17.7 14.3 32 32 32h117.7c17.6 0 32-14.3 32-32v-26.9c0-17.6-14.4-32-32-32h-117.7c-17.7 0-32 14.4-32 32zm81.4 90.8c-8.5 8.5-13.3 20-13.3 32.1 0 12 4.8 23.6 13.3 32.1 8.5 8.5 20.1 13.3 32.1 13.3 12.1 0 23.6-4.8 32.1-13.3 8.6-8.5 13.4-20.1 13.4-32.1 0-12.1-4.8-23.6-13.4-32.1-8.5-8.6-20-13.3-32.1-13.3-12 0-23.6 4.7-32.1 13.3z"/>
</svg>