<svg version="1.2" xmlns="http://www.w3.org/2000/svg" viewBox="0 0 512 512" width="512" height="512">
	<title>circle-solid-svg</title>
	<style>
		.s0 { fill: #0c1c8c } 
		.s1 { fill: #ffffff } 
	</style>
	<path id="Layer" class="s0" d="m256 512c141.4 0 256-114.6 256-256 0-141.4-114.6-256-256-256-141.4 0-256 114.6-256 256 0 141.4 114.6 256 256 256z"/>
	<path id="Layer" class="s1" d="m126.8 137c-16.4 0-29.8 13.4-29.8 29.8 0 9.4 4.4 18.2 11.9 23.9l135.2 101.3c7.1 5.3 16.7 5.3 23.8 0l135.2-101.3c7.5-5.7 11.9-14.5 11.9-23.9 0-16.4-13.4-29.8-29.8-29.8zm-29.8 69.6v129.2c0 21.9 17.8 39.7 39.7 39.7h238.5c21.9 0 39.8-17.8 39.8-39.7v-129.2l-135.2 101.3c-14.1 10.6-33.5 10.6-47.7 0z"/>
</svg>